HIERARCHY
ROOT SimulationBone
{
	OFFSET 0.000000 0.000000 0.000000
	CHANNELS 6 Xposition Yposition Zposition Zrotation Yrotation Xrotation 
	JOINT Hips
	{
		OFFSET 0.000000 0.000000 0.000000
		CHANNELS 6 Xposition Yposition Zposition Zrotation Yrotation Xrotation 
		JOINT LeftUpLeg
		{
			OFFSET 0.103457 1.857824 10.548509
			CHANNELS 3 Zrotation Yrotation Xrotation
			JOINT LeftLeg
			{
				OFFSET 43.500000 -0.000023 0.000006
				CHANNELS 3 Zrotation Yrotation Xrotation
				JOINT LeftFoot
				{
					OFFSET 42.372192 0.000011 -0.000009
					CHANNELS 3 Zrotation Yrotation Xrotation
					JOINT LeftToe
					{
						OFFSET 17.300005 0.000002 -0.000010
						CHANNELS 3 Zrotation Yrotation Xrotation
						End Site
						{
							OFFSET 0.000000 0.000000 0.000000
						}
					}
				}
			}
		}
		JOINT RightUpLeg
		{
			OFFSET 0.103458 1.857836 -10.548506
			CHANNELS 3 Zrotation Yrotation Xrotation
			JOINT RightLeg
			{
				OFFSET 43.500038 -0.000023 0.000017
				CHANNELS 3 Zrotation Yrotation Xrotation
				JOINT RightFoot
				{
					OFFSET 42.372269 -0.000019 0.000007
					CHANNELS 3 Zrotation Yrotation Xrotation
					JOINT RightToe
					{
						OFFSET 17.299999 -0.000003 0.000008
						CHANNELS 3 Zrotation Yrotation Xrotation
						End Site
						{
							OFFSET 0.000000 0.000000 0.000000
						}
					}
				}
			}
		}
		JOINT Spine
		{
			OFFSET 6.901969 -2.603729 0.000003
			CHANNELS 3 Zrotation Yrotation Xrotation
			JOINT Spine1
			{
				OFFSET 12.588093 -0.000007 0.000001
				CHANNELS 3 Zrotation Yrotation Xrotation
				JOINT Spine2
				{
					OFFSET 12.343206 0.000014 -0.000007
					CHANNELS 3 Zrotation Yrotation Xrotation
					JOINT Neck
					{
						OFFSET 25.832899 -0.000010 0.000002
						CHANNELS 3 Zrotation Yrotation Xrotation
						JOINT Head
						{
							OFFSET 11.766599 0.000010 -0.000001
							CHANNELS 3 Zrotation Yrotation Xrotation
							End Site
							{
								OFFSET 0.000000 0.000000 0.000000
							}
						}
					}
					JOINT LeftShoulder
					{
						OFFSET 19.745895 -1.480371 6.000111
						CHANNELS 3 Zrotation Yrotation Xrotation
						JOINT LeftArm
						{
							OFFSET 11.284124 -0.000010 -0.000007
							CHANNELS 3 Zrotation Yrotation Xrotation
							JOINT LeftForeArm
							{
								OFFSET 33.000061 0.000006 0.000028
								CHANNELS 3 Zrotation Yrotation Xrotation
								JOINT LeftHand
								{
									OFFSET 25.200001 0.000019 0.000008
									CHANNELS 3 Zrotation Yrotation Xrotation
									End Site
									{
										OFFSET 0.000000 0.000000 0.000000
									}
								}
							}
						}
					}
					JOINT RightShoulder
					{
						OFFSET 19.746101 -1.480375 -6.000078
						CHANNELS 3 Zrotation Yrotation Xrotation
						JOINT RightArm
						{
							OFFSET 11.284128 -0.000010 -0.000011
							CHANNELS 3 Zrotation Yrotation Xrotation
							JOINT RightForeArm
							{
								OFFSET 33.000095 0.000022 0.000002
								CHANNELS 3 Zrotation Yrotation Xrotation
								JOINT RightHand
								{
									OFFSET 25.199768 0.000129 0.000422
									CHANNELS 3 Zrotation Yrotation Xrotation
									End Site
									{
										OFFSET 0.000000 0.000000 0.000000
									}
								}
							}
						}
					}
				}
			}
		}
	}
}
MOTION
Frames: 14
Frame Time: 0.016667
-347.514857 0.000000 372.452444 0.000000 75.248041 0.000000 -5.946922 88.509143 -0.101673 81.310750 -0.601545 179.198745 141.960959 -5.946577 173.381979 -16.982627 1.221290 -2.403034 70.488054 -3.543059 -15.714857 21.454550 0.003093 0.000002 -177.652763 -3.957353 178.955471 -24.155813 -0.841210 -5.581768 95.646380 2.558034 -10.253948 21.454556 -0.003101 -0.000018 6.984421 -0.362856 1.427147 3.946493 -0.773664 2.841291 3.628789 -0.756364 2.845910 -5.162110 10.525219 1.406303 -30.492635 -3.509440 6.151326 -146.486576 -78.673303 -35.610387 25.434964 60.014991 66.193014 -34.122881 -17.749998 1.493078 12.668156 5.880758 10.313138 167.804007 76.024576 -11.046219 12.105158 -57.436407 -14.350351 -52.897198 11.802671 -1.662762 1.712217 17.191005 14.084422 
-347.484745 0.000000 370.628976 0.000000 74.228201 0.000000 -5.842700 88.130409 -0.055575 81.712109 -0.484169 -179.916081 141.884557 -5.292604 171.972156 -18.930518 1.736793 -1.144715 70.345579 -3.442502 -12.621874 21.454551 0.003090 0.000001 -176.791155 -3.330510 179.275786 -25.558505 -0.663630 -6.185328 95.320582 2.888137 -10.572107 21.454557 -0.003102 -0.000017 7.068912 -0.303971 1.398684 4.117056 -0.657027 2.785818 3.799347 -0.640063 2.789737 -5.173372 10.365768 1.205273 -30.719120 -3.782764 6.050725 -146.577496 -78.899532 -35.509976 22.034941 60.005976 63.529705 -34.538326 -18.254819 1.534698 12.686303 4.859204 12.117459 167.547517 75.873828 -11.313949 12.518888 -56.838951 -15.034763 -52.363808 11.837210 -1.646975 1.687458 17.614151 13.616641 
-347.420402 0.000000 368.804862 0.000000 73.280948 0.000000 -5.715149 87.852853 -0.026455 82.005038 -0.479515 -179.210030 141.626970 -4.801839 171.218951 -21.996517 1.942363 0.073489 69.740737 -2.882184 -8.197196 21.454553 0.003089 0.000000 -176.277222 -2.625152 -179.814911 -27.316706 -0.792072 -7.125305 94.355829 3.399177 -10.875530 21.454558 -0.003106 -0.000016 7.083270 -0.277228 1.391911 4.146449 -0.603661 2.773123 3.828740 -0.586774 2.776723 -4.827194 10.347940 0.994346 -30.894208 -3.924989 5.877690 -146.584695 -79.160104 -35.493561 19.063822 59.928946 60.988226 -35.077765 -18.874968 1.586951 12.624054 3.809374 13.718414 167.508466 75.701973 -11.360590 13.049095 -56.285221 -16.135788 -51.575237 11.900896 -1.624455 1.849726 18.112162 13.660185 
-347.321530 0.000000 366.981671 0.000000 72.400060 0.000000 -5.571959 87.746132 -0.053275 82.229236 -0.707852 -178.622754 141.547610 -4.214988 171.357043 -25.050803 1.923704 0.517586 69.266491 -1.948886 -4.493679 21.454555 0.003093 0.000000 -176.220028 -1.675394 -178.385676 -29.610761 -1.191188 -8.355763 92.550053 4.000678 -11.399462 21.454560 -0.003108 -0.000016 7.066866 -0.307473 1.368535 4.113079 -0.662902 2.725426 3.795354 -0.646300 2.729386 -4.486642 10.489325 0.764532 -30.898815 -3.986234 5.677786 -146.258635 -79.215743 -35.823020 16.128664 59.742741 58.195887 -35.734736 -19.525646 1.644751 12.473389 2.677904 14.956064 167.654082 75.518761 -11.219057 13.490551 -55.925420 -17.223721 -50.620631 12.053852 -1.604179 1.961207 18.439276 13.723759 
-347.188359 0.000000 365.160453 0.000000 71.582228 0.000000 -5.417396 87.840323 -0.164679 82.455135 -1.246309 -178.093235 141.949776 -3.309545 172.367095 -27.221808 1.720271 -0.393880 69.518156 -0.814415 -3.171860 21.454553 0.003101 0.000000 -176.706312 -0.320294 -176.592373 -32.664999 -1.769098 -9.802833 89.670710 4.615293 -12.060267 21.454561 -0.003106 -0.000016 7.069693 -0.410935 1.300471 4.116875 -0.867421 2.585725 3.799102 -0.851654 2.590920 -4.495864 10.796610 0.490777 -30.665068 -4.020566 5.482326 -145.518883 -78.907969 -36.586065 12.826725 59.398499 54.815618 -36.462115 -20.104254 1.699358 12.221380 1.437824 15.659438 167.848097 75.332081 -11.028098 13.752573 -55.926641 -17.871647 -49.628218 12.328189 -1.591747 1.795820 18.448717 13.321744 
-347.021703 0.000000 363.341574 0.000000 70.829763 0.000000 -5.218347 87.956581 -0.321775 82.765381 -1.867085 -177.647896 142.600279 -2.352296 174.158458 -29.206574 1.118005 -2.038188 70.677369 0.432871 -3.103017 21.454550 0.003104 0.000001 -177.758624 1.376005 -174.709450 -36.687004 -2.353769 -11.408993 85.473157 5.526185 -11.193714 21.454563 -0.003102 -0.000017 7.103567 -0.545672 1.224049 4.182465 -1.134821 2.427897 3.864623 -1.120000 2.434706 -4.632170 11.229704 0.140822 -30.370005 -3.955036 5.201203 -145.092326 -78.631112 -37.030027 9.488132 58.996242 51.191241 -37.149364 -20.558232 1.746336 11.831621 0.169386 15.762840 167.753789 75.159234 -11.131216 14.246611 -56.355841 -18.057950 -48.733802 12.553530 -1.577269 1.503391 18.505785 12.599213 
-346.822974 0.000000 361.524484 0.000000 70.146413 0.000000 -4.950274 87.928254 -0.477188 83.214155 -2.326045 -177.335632 143.219331 -1.662647 176.444660 -31.756834 -0.001801 -3.581697 72.750187 1.689773 -2.831618 21.454548 0.003097 0.000001 -179.392448 3.256015 -173.034556 -41.779112 -2.841340 -13.073901 79.945529 7.185314 -7.630910 21.454563 -0.003101 -0.000021 7.162974 -0.664252 1.179296 4.299445 -1.371483 2.333501 3.981537 -1.357231 2.341739 -4.578710 11.749355 -0.295044 -30.209508 -3.738372 4.767536 -145.534023 -78.810477 -36.574187 6.521607 58.682277 47.725430 -37.759380 -20.881699 1.783785 11.306184 -0.977976 15.338856 167.126598 75.028945 -11.777506 15.354659 -57.216283 -17.951398 -48.063377 12.572252 -1.556752 1.312999 18.993976 11.919826 
-346.593214 0.000000 359.707127 0.000000 69.536297 0.000000 -4.669316 87.846382 -0.612577 83.685693 -2.610135 -177.209703 143.919530 -1.316104 178.270751 -34.320323 -1.199491 -4.658905 75.222341 2.662074 -2.393998 21.454550 0.003085 -0.000000 178.399500 5.018011 -171.822629 -47.586665 -3.406823 -14.430446 73.830765 9.165714 -3.547402 21.454560 -0.003102 -0.000023 7.212280 -0.755410 1.156742 4.396642 -1.553857 2.284415 4.078682 -1.539903 2.293754 -4.209499 12.356777 -0.739960 -30.204390 -3.531380 4.325123 -146.481764 -79.425593 -35.588813 4.191008 58.477455 44.648634 -38.616355 -21.204770 1.826037 10.805458 -1.670755 14.902266 166.233198 75.009325 -12.691553 16.858376 -58.359101 -18.078407 -47.690463 12.481338 -1.540028 1.433812 19.846552 11.914947 
-346.332163 0.000000 357.885606 0.000000 69.000684 0.000000 -4.445448 87.838873 -0.723971 84.057421 -2.780680 -177.332109 144.876365 -1.298044 178.687529 -36.204403 -1.940365 -5.117262 77.538642 3.106819 -2.126635 21.454554 0.003077 -0.000001 175.657110 6.390431 -171.304027 -53.656766 -4.145617 -15.056658 67.860019 10.566679 -0.935124 21.454553 -0.003105 -0.000019 7.224377 -0.822001 1.133896 4.419947 -1.686346 2.236092 4.101952 -1.672683 2.246230 -3.557859 13.027913 -1.094016 -30.272344 -3.488768 4.041111 -147.325332 -80.284871 -34.702710 2.604969 58.347028 42.097334 -40.053203 -21.649256 1.893179 10.469383 -1.688046 14.916702 165.394563 75.147451 -13.542802 18.375021 -59.575279 -18.867703 -47.672805 12.414598 -1.535298 1.989554 20.840221 13.023795 
-346.039262 0.000000 356.055067 0.000000 68.533233 0.000000 -4.317711 87.923424 -0.843952 84.361583 -2.983854 -177.803417 146.161075 -1.492906 177.429982 -37.351524 -2.031890 -4.935593 79.587754 3.049662 -1.916342 21.454557 0.003077 -0.000002 172.597009 7.428498 -171.719780 -59.575573 -4.857620 -14.686010 62.830834 11.542584 1.675719 21.454550 -0.003108 -0.000015 7.235997 -0.887216 1.085268 4.442784 -1.815098 2.136254 4.124751 -1.802031 2.147172 -3.110013 13.593735 -1.264753 -30.107620 -3.527686 3.967203 -147.189384 -80.949974 -34.818128 1.344340 58.110865 39.951534 -42.065341 -22.170943 1.984031 10.268388 -1.484213 15.234039 164.749722 75.354625 -14.192617 19.367870 -60.620796 -19.938254 -48.061100 12.397944 -1.545939 2.657308 21.605326 14.570832 
-345.715068 0.000000 354.210961 0.000000 68.126040 0.000000 -4.305196 88.090707 -0.991402 84.638791 -3.309463 -178.642442 147.772081 -1.752361 174.682359 -37.859905 -1.492043 -4.194705 81.369372 2.606619 -1.601215 21.454554 0.003085 -0.000002 169.439339 8.182730 -173.102989 -64.997997 -5.290288 -13.214467 59.625535 12.485054 5.686240 21.454554 -0.003109 -0.000019 7.280472 -0.962815 0.985666 4.532170 -1.963212 1.933491 4.214075 -1.951357 1.945314 -3.254676 13.903091 -1.199506 -29.499271 -3.538395 4.108813 -145.509475 -81.069397 -36.516591 0.051008 57.594474 38.115137 -44.510908 -22.684147 2.088990 10.100241 -1.573370 15.647543 164.389349 75.519556 -14.553400 19.391778 -61.313134 -20.762270 -48.874605 12.426913 -1.573508 3.010009 21.852911 15.688778 
-345.360340 0.000000 352.349496 0.000000 67.773518 0.000000 -4.376001 88.333504 -1.098050 84.802896 -3.535893 -179.494650 149.465070 -2.014204 171.751240 -37.893465 -0.768513 -3.333761 82.873464 2.061242 -1.318239 21.454551 0.003090 -0.000001 166.235125 8.492399 -174.625261 -69.832980 -5.367264 -10.881590 58.745117 12.449090 9.089875 21.454558 -0.003108 -0.000024 7.313388 -0.994777 0.814597 4.600581 -2.020944 1.589591 4.282413 -2.011162 1.601776 -3.534384 14.035177 -0.951984 -28.833035 -3.539283 4.402891 -143.907000 -80.913699 -38.146391 -1.027583 56.885280 36.681349 -47.037278 -23.101457 2.196811 9.737945 -2.015030 16.306599 164.287618 75.575534 -14.654795 18.874574 -61.670261 -21.378447 -50.012905 12.484408 -1.613296 2.845481 21.656807 15.992446 
-344.974584 0.000000 350.468836 0.000000 67.471086 0.000000 -4.484531 88.644583 -1.101129 84.770344 -3.440827 -179.997958 151.010604 -2.300553 169.941753 -37.614012 -0.321861 -2.790876 84.104920 1.696344 -1.222119 21.454551 0.003081 -0.000001 163.042119 8.289720 -175.408401 -73.990652 -5.145061 -7.988868 60.166020 10.476347 9.797404 21.454551 -0.003105 -0.000025 7.288728 -0.930409 0.560564 4.556287 -1.882019 1.084523 4.238067 -1.875302 1.095879 -3.445878 14.134406 -0.601795 -28.514600 -3.598767 4.792854 -143.839448 -80.864969 -38.216727 -1.634870 56.150965 35.685371 -49.310486 -23.355145 2.289065 9.008608 -2.702522 17.333499 164.444383 75.490235 -14.498499 18.374916 -61.770534 -21.912324 -51.335283 12.525368 -1.658016 2.088008 21.117158 15.297125 
-344.557662 0.000000 348.569693 0.000000 67.213572 0.000000 -4.589994 89.014557 -1.035799 84.624155 -3.092922 179.857982 152.516812 -2.542896 169.428621 -37.030378 -0.232380 -2.654040 85.115248 1.586128 -1.292331 21.454553 0.003073 -0.000002 160.015240 7.771902 -175.313307 -77.186546 -4.842639 -4.784759 62.709236 7.465893 8.963384 21.454548 -0.003105 -0.000022 7.233120 -0.787130 0.242785 4.450669 -1.582954 0.455438 4.132442 -1.580051 0.464995 -3.148085 14.384097 -0.243522 -28.433675 -3.873106 5.318759 -144.844498 -81.024792 -37.192053 -1.917556 55.574249 34.907730 -51.299757 -23.451301 2.362273 8.101349 -3.351633 18.367034 165.108211 75.326546 -13.827688 17.913154 -61.767980 -22.073514 -52.658572 12.405174 -1.694891 0.855490 20.129515 13.673913 
